#N canvas 310 129 505 562 12;
#X obj 192 72 loadbang;
#X msg 190 157 set \$1;
#X obj 110 340 inlet;
#X obj 189 181 adc~;
#X obj 113 366 metro 10;
#X obj 116 407 snapshot~;
#X obj 119 505 send;
#X obj 145 438 loadbang;
#X obj 195 132 + 3;
#X obj 190 105 i \$2;
#X obj 144 476 symbol 0_\$1;
#X obj 195 360 clip~ 0 1;
#X obj 101 299 tgl 15 0 empty Bela_on Bela_on 17 7 0 10 -262144 -1
-1 0 1;
#X obj 196 328 *~ 1.23;
#X connect 0 0 9 0;
#X connect 1 0 3 0;
#X connect 2 0 4 0;
#X connect 3 0 13 0;
#X connect 4 0 5 0;
#X connect 5 0 6 0;
#X connect 7 0 10 0;
#X connect 8 0 1 0;
#X connect 9 0 8 0;
#X connect 10 0 6 1;
#X connect 11 0 5 0;
#X connect 12 0 4 0;
#X connect 13 0 11 0;
