#N canvas 791 537 701 440 10;
#X obj 142 54 inlet;
#X obj 146 135 adc~ 3 4;
#X obj 81 168 ys.snapshot 5;
#X floatatom 81 189 5 0 0 0 - - -;
#X obj 322 98 s bela_setDigital @hv_param;
#X msg 324 71 in 11 \, in 12;
#X obj 322 44 loadbang;
#X obj 408 151 r bela_digitalIn11;
#X obj 272 157 r bela_digitalIn12;
#X obj 269 201 outlet;
#X obj 400 201 outlet;
#X obj 181 166 ys.snapshot 5;
#X floatatom 181 187 5 0 0 0 - - -;
#X obj 44 235 outlet;
#X obj 175 235 outlet;
#X obj 140 80 block~;
#X connect 0 0 15 0;
#X connect 1 0 2 0;
#X connect 1 1 11 0;
#X connect 2 0 3 0;
#X connect 3 0 13 0;
#X connect 5 0 4 0;
#X connect 6 0 5 0;
#X connect 7 0 10 0;
#X connect 8 0 9 0;
#X connect 11 0 12 0;
#X connect 12 0 14 0;
