#N canvas 714 192 505 562 12;
#X obj 192 72 loadbang;
#X msg 190 157 set \$1;
#X obj 62 333 inlet;
#X obj 189 181 adc~;
#X obj 116 407 snapshot~;
#X obj 119 505 send;
#X obj 145 438 loadbang;
#X obj 195 132 + 3;
#X obj 237 218 snapshot~;
#X obj 233 182 loadbang;
#X obj 303 181 r calibrate;
#X floatatom 238 244 5 0 0 0 - - -;
#X obj 191 277 -~;
#X floatatom 237 300 5 0 0 0 - - -;
#X obj 196 328 *~;
#X obj 195 360 clip~ 0 1;
#X obj 237 276 expr 1/(.81-$f1);
#X obj 53 292 tgl 15 0 empty Bela_on Bela_on 17 7 0 10 -262144 -1 -1
1 1;
#X obj 190 105 i \$3;
#X obj 144 476 symbol \$2_\$1;
#X obj 113 366 metro 20;
#X obj 119 315 r analogSpeed;
#X obj 257 437 outlet;
#X connect 0 0 18 0;
#X connect 1 0 3 0;
#X connect 2 0 20 0;
#X connect 3 0 8 0;
#X connect 3 0 12 0;
#X connect 4 0 5 0;
#X connect 4 0 22 0;
#X connect 6 0 19 0;
#X connect 7 0 1 0;
#X connect 8 0 11 0;
#X connect 9 0 8 0;
#X connect 10 0 8 0;
#X connect 11 0 12 1;
#X connect 11 0 16 0;
#X connect 12 0 14 0;
#X connect 13 0 14 1;
#X connect 14 0 15 0;
#X connect 15 0 4 0;
#X connect 16 0 13 0;
#X connect 17 0 20 0;
#X connect 18 0 7 0;
#X connect 19 0 5 1;
#X connect 20 0 4 0;
#X connect 21 0 20 1;
