#N canvas 406 236 691 548 12;
#X obj 94 56 catch~ \$1_grainoutL;
#X obj 240 57 catch~ \$1_grainoutR;
#X obj 423 61 loadbang;
#X obj 421 118 + 3;
#X msg 421 146 set \$1;
#X obj 133 435 *~;
#X obj 265 432 *~;
#X obj 203 468 dac~;
#X obj 133 85 inlet;
#X obj 167 252 dac~;
#X obj 421 187 adc~;
#X obj 133 109 sel 0 1;
#X msg 140 145 1;
#X obj 146 216 *~ 0;
#X obj 201 215 *~ 0;
#X msg 183 147 0;
#X obj 468 223 snapshot~;
#X obj 464 187 loadbang;
#X obj 534 186 r calibrate;
#X floatatom 469 249 5 0 0 0 - - -;
#X obj 422 282 -~;
#X floatatom 468 305 5 0 0 0 - - -;
#X obj 427 333 *~;
#X obj 426 365 clip~ 0 1;
#X obj 468 281 expr 1/(.81-$f1);
#X obj 177 82 tgl 15 0 empty Bela_on Bela_on 17 7 0 10 -262144 -1 -1
0 1;
#X obj 421 94 i \$2;
#X connect 0 0 5 0;
#X connect 0 0 13 0;
#X connect 1 0 6 0;
#X connect 1 0 14 0;
#X connect 2 0 26 0;
#X connect 3 0 4 0;
#X connect 4 0 10 0;
#X connect 5 0 7 0;
#X connect 6 0 7 1;
#X connect 8 0 11 0;
#X connect 10 0 16 0;
#X connect 10 0 20 0;
#X connect 11 0 12 0;
#X connect 11 1 15 0;
#X connect 12 0 13 1;
#X connect 12 0 14 1;
#X connect 13 0 9 0;
#X connect 14 0 9 1;
#X connect 15 0 14 1;
#X connect 15 0 13 1;
#X connect 16 0 19 0;
#X connect 17 0 16 0;
#X connect 18 0 16 0;
#X connect 19 0 20 1;
#X connect 19 0 24 0;
#X connect 20 0 22 0;
#X connect 21 0 22 1;
#X connect 22 0 23 0;
#X connect 23 0 6 1;
#X connect 23 0 5 1;
#X connect 24 0 21 0;
#X connect 25 0 11 0;
#X connect 26 0 3 0;
