#N canvas 126 225 657 383 10;
#X floatatom 61 85 5 0 0 0 - - -;
#X floatatom 144 84 5 0 0 0 - - -;
#X floatatom 212 85 5 0 0 0 - - -;
#X floatatom 295 84 5 0 0 0 - - -;
#X floatatom 57 205 5 0 0 0 - - -;
#X floatatom 140 204 5 0 0 0 - - -;
#X floatatom 208 205 5 0 0 0 - - -;
#X floatatom 291 204 5 0 0 0 - - -;
#X obj 58 112 s candle1;
#X obj 142 111 s candle2;
#X obj 215 113 s candle3;
#X obj 292 112 s candle4;
#X obj 292 234 s candle8;
#X obj 59 234 s candle5;
#X obj 142 233 s candle6;
#X obj 215 235 s candle7;
#X obj 61 64 ctlin 30 1;
#X obj 140 182 ctlin 35 1;
#X obj 208 183 ctlin 36 1;
#X obj 291 183 ctlin 37 1;
#X obj 144 63 ctlin 31 1;
#X obj 212 64 ctlin 32 1;
#X obj 295 63 ctlin 33 1;
#X obj 57 184 ctlin 34 1;
#X floatatom 391 88 5 0 0 0 - - -;
#X floatatom 474 87 5 0 0 0 - - -;
#X floatatom 542 88 5 0 0 0 - - -;
#X floatatom 625 87 5 0 0 0 - - -;
#X floatatom 387 208 5 0 0 0 - - -;
#X floatatom 470 207 5 0 0 0 - - -;
#X floatatom 538 208 5 0 0 0 - - -;
#X floatatom 621 207 5 0 0 0 - - -;
#X obj 388 115 s candle1;
#X obj 472 114 s candle2;
#X obj 545 116 s candle3;
#X obj 622 115 s candle4;
#X obj 622 237 s candle8;
#X obj 389 237 s candle5;
#X obj 472 236 s candle6;
#X obj 545 238 s candle7;
#X obj 391 67 ctlin 30 17;
#X obj 474 66 ctlin 31 17;
#X obj 542 67 ctlin 32 17;
#X obj 625 66 ctlin 33 17;
#X obj 387 187 ctlin 34 17;
#X obj 470 185 ctlin 35 17;
#X obj 538 186 ctlin 36 17;
#X obj 621 186 ctlin 37 17;
#X connect 0 0 8 0;
#X connect 1 0 9 0;
#X connect 2 0 10 0;
#X connect 3 0 11 0;
#X connect 4 0 13 0;
#X connect 5 0 14 0;
#X connect 6 0 15 0;
#X connect 7 0 12 0;
#X connect 16 0 0 0;
#X connect 17 0 5 0;
#X connect 18 0 6 0;
#X connect 19 0 7 0;
#X connect 20 0 1 0;
#X connect 21 0 2 0;
#X connect 22 0 3 0;
#X connect 23 0 4 0;
#X connect 24 0 32 0;
#X connect 25 0 33 0;
#X connect 26 0 34 0;
#X connect 27 0 35 0;
#X connect 28 0 37 0;
#X connect 29 0 38 0;
#X connect 30 0 39 0;
#X connect 31 0 36 0;
#X connect 40 0 24 0;
#X connect 41 0 25 0;
#X connect 42 0 26 0;
#X connect 43 0 27 0;
#X connect 44 0 28 0;
#X connect 45 0 29 0;
#X connect 46 0 30 0;
#X connect 47 0 31 0;
