#N canvas 66 548 1137 268 10;
#X obj 55 71 send \$1_grain_size_rcv;
#X obj 206 71 send \$1_grain_density_rcv;
#X obj 374 69 send \$1_grain_pitch;
#X obj 501 69 send \$1_grainplay_chance;
#X obj 670 64 send \$1_autoplay_on_off;
#X obj 669 40 r master_autoplay_on_off;
#X obj 55 49 r master_grain_size;
#X obj 202 44 r master_grain_density;
#X obj 377 46 r master_grain_pitch;
#X obj 518 44 r master_grainplay_chance;
#X obj 64 120 r master_autoplay_speed;
#X obj 64 141 send \$1_autoplay_speed;
#X obj 301 140 r master_reset_pitch;
#X obj 301 161 send \$1_reset_pitch;
#X obj 477 149 r master_on_off;
#X obj 477 170 s \$1_on_off;
#X obj 613 153 r master_volume;
#X obj 613 174 s \$1_volume;
#X obj 725 150 r master_offset_random;
#X obj 725 171 s \$1_offset_random;
#X obj 930 154 r master_grainplay_chance;
#X obj 930 175 s \$1_grainplay_chance;
#X obj 913 63 r master_random_panning;
#X obj 913 84 s \$1_random_panning;
#X connect 5 0 4 0;
#X connect 6 0 0 0;
#X connect 7 0 1 0;
#X connect 8 0 2 0;
#X connect 9 0 3 0;
#X connect 10 0 11 0;
#X connect 12 0 13 0;
#X connect 14 0 15 0;
#X connect 16 0 17 0;
#X connect 18 0 19 0;
#X connect 20 0 21 0;
#X connect 22 0 23 0;
