#N canvas 0 23 450 300 12;
#X obj 266 125 switch~;
#X obj 146 147 adc~;
#X obj 149 55 i \$1;
#X obj 151 22 loadbang;
#X obj 149 79 + 3;
#X msg 149 107 set \$1;
#X obj 285 56 inlet;
#X obj 137 212 outlet~;
#X connect 1 0 7 0;
#X connect 2 0 4 0;
#X connect 3 0 2 0;
#X connect 4 0 5 0;
#X connect 5 0 1 0;
#X connect 6 0 0 0;
