#N canvas 41 23 1237 537 10;
#X obj 163 273 bng 15 250 50 0 defaults defaults_rcv defaults 17 7
0 10 -262144 -1 -1;
#N canvas 36 75 1369 803 autoplay 0;
#X floatatom 279 367 5 0 0 0 - - -;
#X obj 300 442 phasor~ 0.1;
#X obj 364 505 spigot;
#X obj 517 346 sel 1;
#X obj 376 371 f;
#X obj 302 565 spigot;
#X obj 163 399 - 1;
#X obj 163 421 abs;
#X obj 162 446 tgl 15 0 empty empty empty 17 7 0 10 -262144 -1 -1 1
1;
#X obj 222 375 sel 0;
#X obj 233 415 f;
#X floatatom 94 71 5 0 0 0 - - -;
#X obj 94 90 / 44.1;
#X floatatom 94 112 5 0 0 0 - - -;
#X floatatom 94 153 15 0 0 0 - - -;
#X obj 94 131 expr 1000/$f1;
#X obj 181 256 *;
#X obj 250 331 * 1;
#X obj 268 286 t b b;
#X obj 267 259 sel 0 1;
#X msg 301 313 1;
#X obj 325 285 t b b;
#X msg 358 312 -1;
#X obj 474 312 t f f;
#X floatatom 388 393 5 0 0 0 - - -;
#X obj 110 201 t b f;
#X floatatom 364 526 5 0 0 0 - - -;
#X obj 189 203 * 4;
#X obj 300 464 snapshot~;
#X obj 395 440 tgl 15 0 empty empty empty 17 7 0 10 -262144 -1 -1 1
1;
#X obj 395 460 metro 10;
#X obj 94 49 r \$1-samplelength;
#X obj 201 167 r \$1-autoplay_speed;
#X obj 267 238 r \$1-autoplay_reverse;
#X obj 403 159 r \$1-sample_offset;
#X obj 511 203 r \$1-autoplay_on_off;
#X obj 167 342 r \$1-freeze;
#X obj 300 593 s \$1-sample_offset_rcv;
#X connect 0 0 1 0;
#X connect 1 0 28 0;
#X connect 2 0 5 0;
#X connect 2 0 26 0;
#X connect 3 0 4 0;
#X connect 4 0 1 1;
#X connect 4 0 24 0;
#X connect 5 0 10 1;
#X connect 5 0 37 0;
#X connect 6 0 7 0;
#X connect 7 0 8 0;
#X connect 8 0 5 1;
#X connect 9 0 10 0;
#X connect 10 0 1 1;
#X connect 11 0 12 0;
#X connect 12 0 13 0;
#X connect 13 0 15 0;
#X connect 14 0 25 0;
#X connect 15 0 14 0;
#X connect 16 0 17 0;
#X connect 17 0 0 0;
#X connect 18 0 17 0;
#X connect 18 1 20 0;
#X connect 19 0 18 0;
#X connect 19 1 21 0;
#X connect 20 0 17 1;
#X connect 21 0 17 0;
#X connect 21 1 22 0;
#X connect 22 0 17 1;
#X connect 23 0 2 1;
#X connect 23 1 3 0;
#X connect 25 0 16 0;
#X connect 25 1 16 1;
#X connect 27 0 16 0;
#X connect 28 0 2 0;
#X connect 29 0 30 0;
#X connect 30 0 28 0;
#X connect 31 0 11 0;
#X connect 32 0 27 0;
#X connect 33 0 19 0;
#X connect 34 0 4 1;
#X connect 35 0 23 0;
#X connect 35 0 29 0;
#X connect 36 0 6 0;
#X connect 36 0 9 0;
#X restore 86 272 pd autoplay;
#X floatatom 503 193 5 0 0 0 - - -;
#X text 441 195 channels;
#X obj 379 120 loadbang;
#X obj 501 168 r num_channels_rcv;
#X obj 510 255 s num_channels;
#X msg 407 147 32;
#X text 93 223 number of instances of y_grain_stereo should equal the
numgrains (I recognise this is silly);
#X msg 337 146 10;
#X text 182 91 (some vestigial things in here to clean up);
#X obj 778 205 metro 1000;
#X msg 92 168 next 1;
#X obj 838 150 * 1000;
#X obj 778 232 random 100;
#X floatatom 778 253 5 0 0 0 - - -;
#X obj 783 286 < 100;
#X obj 783 314 tgl 15 0 empty empty empty 17 7 0 10 -262144 -1 -1 1
1;
#X obj 783 334 sel 1;
#X obj 785 360 bng 15 250 50 0 empty empty empty 17 7 0 10 -262144
-1 -1;
#X obj 851 261 * 100;
#X obj 1029 210 * 44100;
#X floatatom 1030 240 15 0 0 0 - - -;
#X floatatom 839 174 5 0 0 0 - - -;
#X obj 1029 172 + 0.01;
#X obj 784 163 tgl 15 0 empty empty empty 17 7 0 10 -262144 -1 -1 1
1;
#X obj 778 181 change;
#X obj 482 380 dac~;
#X obj 441 344 *~;
#X obj 534 344 *~;
#X obj 431 286 catch~ \$1-grainoutL;
#X obj 543 290 catch~ \$1-grainoutR;
#X obj 555 317 r \$1-volume;
#X obj 338 201 s \$1-numgrains;
#X obj 93 147 r \$1-mastergrainbang;
#X obj 791 382 s \$1-mastergrainbang;
#X obj 846 330 r \$1-play_one_grain;
#X obj 851 234 r \$1-grainplay_chance;
#X obj 837 93 r \$1-grain_density;
#X obj 778 123 r \$1-on_off;
#X obj 1024 140 r \$1-grain_size;
#X obj 1029 264 s \$1-grainsize;
#X msg 368 145 4;
#X obj 90 190 clone y_grain_stereo 4 \$1;
#X obj 1090 169 r samplerate;
#X connect 2 0 6 0;
#X connect 4 0 42 0;
#X connect 5 0 2 0;
#X connect 7 0 33 0;
#X connect 9 0 33 0;
#X connect 11 0 14 0;
#X connect 12 0 43 0;
#X connect 13 0 23 0;
#X connect 14 0 15 0;
#X connect 15 0 16 0;
#X connect 16 0 17 0;
#X connect 17 0 18 0;
#X connect 18 0 19 0;
#X connect 19 0 35 0;
#X connect 20 0 16 1;
#X connect 21 0 22 0;
#X connect 22 0 41 0;
#X connect 23 0 11 1;
#X connect 24 0 21 0;
#X connect 25 0 26 0;
#X connect 26 0 11 0;
#X connect 28 0 27 0;
#X connect 29 0 27 1;
#X connect 30 0 28 0;
#X connect 31 0 29 0;
#X connect 32 0 28 1;
#X connect 32 0 29 1;
#X connect 34 0 12 0;
#X connect 36 0 19 0;
#X connect 37 0 20 0;
#X connect 38 0 13 0;
#X connect 39 0 25 0;
#X connect 40 0 24 0;
#X connect 42 0 33 0;
#X connect 44 0 21 1;
#X coords 0 537 1 536 400 600 0;
